<svg width="17" height="21" viewBox="0 0 17 21" fill="none" xmlns="http://www.w3.org/2000/svg">
<path fill-rule="evenodd" clip-rule="evenodd" d="M12.5864 0C12.7172 1.23067 12.2377 2.4643 11.5274 3.35347C10.8163 4.24064 9.65026 4.93151 8.50798 4.83955C8.35345 3.63349 8.93008 2.37739 9.5888 1.59038C10.3229 0.703212 11.5632 0.0429843 12.5864 0ZM16.2733 7.16898C16.0648 7.30214 14.0654 8.57963 14.0903 11.1581C14.1165 14.2662 16.6766 15.3449 16.8159 15.4036C16.819 15.4049 16.8215 15.406 16.8215 15.406C16.8203 15.4099 16.818 15.4173 16.8147 15.4283C16.7541 15.6286 16.3424 16.9894 15.4118 18.3925C14.5628 19.6721 13.6841 20.9457 12.2972 20.9723C11.6307 20.9852 11.1853 20.7863 10.7223 20.5795C10.2377 20.3632 9.73383 20.1382 8.93708 20.1382C8.10194 20.1382 7.5744 20.3701 7.06621 20.5935C6.62621 20.787 6.20071 20.974 5.60263 20.9987C4.26424 21.0499 3.24488 19.617 2.39002 18.3413C0.640545 15.735 -0.694738 10.9743 1.10022 7.76077C1.98978 6.1644 3.58275 5.15448 5.31036 5.12798C6.05556 5.11401 6.77724 5.40951 7.40876 5.66809C7.89122 5.86564 8.32107 6.04165 8.66858 6.04165C8.98114 6.04165 9.39988 5.87129 9.88808 5.67268C10.6563 5.36013 11.5966 4.9776 12.5657 5.07885C13.2294 5.10743 15.0919 5.35472 16.2875 7.15981C16.2846 7.16174 16.2798 7.1648 16.2733 7.16898Z" fill="#00AEEF"/>
</svg>
