<svg width="84" height="84" viewBox="0 0 84 84" fill="none" xmlns="http://www.w3.org/2000/svg">
<path d="M58.1963 31.5C58.5848 31.8885 58.8262 32.4266 58.8262 33.0225C58.8262 33.6184 58.5848 34.1565 58.1963 34.545L40.1625 52.5C39.774 52.8885 39.2359 53.13 38.64 53.13C38.0441 53.13 37.506 52.8885 37.1175 52.5L25.8037 41.2125C25.4231 40.824 25.1869 40.2911 25.1869 39.7031C25.1869 38.514 26.1502 37.5506 27.3394 37.5506C27.9405 37.5506 28.4839 37.7974 28.875 38.1938L38.6662 47.985L55.125 31.5C55.5161 31.101 56.0595 30.8569 56.6606 30.8569C57.2617 30.8569 57.8051 31.1036 58.1963 31.5ZM42 0C18.8029 0 0 18.8029 0 42C0 65.1971 18.8029 84 42 84C65.1971 84 84 65.1971 84 42C84 18.8029 65.1971 0 42 0ZM42 79.065C21.5303 79.065 4.935 62.4697 4.935 42C4.935 21.5303 21.5303 4.935 42 4.935C62.4697 4.935 79.065 21.5303 79.065 42C79.065 62.4697 62.4697 79.065 42 79.065Z" fill="white"/>
</svg>
