<svg width="26" height="25" viewBox="0 0 26 25" fill="none" xmlns="http://www.w3.org/2000/svg">
<path fill-rule="evenodd" clip-rule="evenodd" d="M13.2443 0.75C6.61377 0.75 1.2387 6.03862 1.2387 12.5625C1.2387 14.6585 1.79353 16.627 2.76657 18.3336C2.76657 18.3336 3.31127 18.964 1.2827 20.5551C-0.0273449 21.5827 1.33308 22.6394 2.62956 22.7904C3.52147 22.8943 5.56592 22.79 6.47495 22.3196C8.40221 23.6165 10.7332 24.375 13.2443 24.375C19.8749 24.375 25.25 19.0864 25.25 12.5625C25.25 6.03862 19.8749 0.75 13.2443 0.75ZM13.2443 22.7904C10.8342 22.7904 8.61703 21.9777 6.86046 20.6155C6.74296 20.6155 4.44757 21.2778 3.36165 20.9177C5.09559 19.6327 4.42025 17.9064 4.42025 17.9064C3.46984 16.3696 2.92239 14.565 2.92239 12.6345C2.92239 7.02557 7.54368 2.47869 13.2443 2.47869C18.945 2.47869 23.5663 7.02557 23.5663 12.6345C23.5663 18.2435 18.945 22.7904 13.2443 22.7904ZM6.03975 15.1152C6.03975 15.4295 6.27669 15.4436 6.27669 15.4436C6.27669 15.4436 6.74615 15.4436 7.07379 15.4436C7.40223 15.4436 7.3843 15.0616 7.3843 15.0616C7.3843 15.0616 7.3843 12.2896 7.3843 11.5147C7.3843 11.19 7.09185 11.1876 7.09185 11.1876C7.09185 11.1876 6.62464 11.1876 6.31288 11.1876C6.04062 11.1876 6.03975 11.4612 6.03975 11.4612C6.03975 11.4612 6.03975 14.1617 6.03975 15.1152ZM6.71202 8.97365C6.27857 8.97365 5.9955 9.26091 6.00431 9.64383C5.9955 10.0094 6.27857 10.3053 6.70315 10.3053C7.14541 10.3053 7.42848 10.0094 7.42848 9.64383C7.41967 9.26091 7.14541 8.97365 6.71202 8.97365ZM15.3541 12.937C15.3541 11.6664 14.7261 11.0919 13.8946 11.0919C13.5761 11.0919 13.3108 11.1616 13.0719 11.3008C12.8685 11.4227 12.6739 11.5967 12.5147 11.8143H12.4969C12.3112 11.3704 11.8689 11.0919 11.3116 11.0919C10.5686 11.0919 10.1882 11.4922 10.0025 11.7621H9.97595L9.94151 11.4428C9.94151 11.4428 9.89357 11.1876 9.62807 11.1876C9.45612 11.1876 9.23818 11.1876 9.06648 11.1876C8.78441 11.1876 8.79316 11.4442 8.79316 11.4442C8.79316 11.4442 8.81716 12.1305 8.81716 12.5454V14.9904C8.81716 14.9904 8.81703 15.4436 9.24761 15.4436C9.43743 15.4436 9.65575 15.4436 9.82732 15.4436C10.1731 15.4436 10.1263 14.9904 10.1263 14.9904V12.9631C10.1263 12.8587 10.1351 12.7369 10.1794 12.6324C10.259 12.4148 10.4624 12.1537 10.8074 12.1537C11.232 12.1537 11.4266 12.5192 11.4266 13.0589C11.4266 13.0589 11.4266 14.2986 11.4266 14.9904C11.4266 15.4181 11.7657 15.4436 11.7657 15.4436C11.7657 15.4436 12.0899 15.4436 12.3635 15.4436C12.7399 15.4436 12.7358 15.026 12.7358 15.026V12.9544C12.7358 12.85 12.7535 12.7107 12.7889 12.615C12.8773 12.3626 13.0984 12.1537 13.4081 12.1537C13.8415 12.1537 14.045 12.5106 14.045 13.1285V14.9547C14.045 14.9547 13.9759 15.4436 14.32 15.4436C14.5318 15.4436 15.0446 15.4436 15.0446 15.4436C15.0446 15.4436 15.3541 15.4133 15.3541 14.9904C15.3541 14.2682 15.3541 12.937 15.3541 12.937ZM18.8391 11.0919C17.4503 11.0919 16.5304 11.971 16.5304 13.3461C16.5304 14.7212 17.5034 15.5393 18.7683 15.5393C19.9271 15.5393 21.0505 14.8256 21.0505 13.2677C21.0505 11.9884 20.166 11.0919 18.8391 11.0919ZM18.8038 14.5907C18.2287 14.5907 17.9192 14.0423 17.9192 13.3112C17.9192 12.6846 18.158 12.0319 18.8038 12.0319C19.4141 12.0319 19.6618 12.676 19.6618 13.3112C19.6618 14.0771 19.3257 14.5907 18.8038 14.5907Z" fill="#02AAEF"/>
</svg>
