<svg width="17" height="18" viewBox="0 0 17 18" fill="none" xmlns="http://www.w3.org/2000/svg">
<path fill-rule="evenodd" clip-rule="evenodd" d="M8.1545 0.00251347C7.94483 0.00241853 7.75054 0.00233055 7.56993 0.00261577V0C5.63749 0.00217981 5.26681 0.0152587 4.31031 0.0588549C3.29937 0.105721 2.75048 0.275746 2.38499 0.419613C1.90112 0.609693 1.5555 0.836393 1.1926 1.2026C0.829703 1.56881 0.604618 1.91758 0.416687 2.40586C0.274767 2.77468 0.105846 3.32835 0.0596194 4.3485C0.00993656 5.45149 0 5.78107 0 8.57515C0 11.3692 0.00993656 11.7006 0.0596194 12.8035C0.10563 13.8237 0.274767 14.3774 0.416687 14.7458C0.60505 15.2343 0.829703 15.5822 1.1926 15.9484C1.5555 16.3146 1.90112 16.5413 2.38499 16.7309C2.7507 16.8741 3.29937 17.0446 4.31031 17.0917C5.40333 17.1418 5.73145 17.1527 8.50008 17.1527C11.2685 17.1527 11.5968 17.1418 12.6898 17.0917C13.7008 17.045 14.2499 16.875 14.6149 16.7311C15.099 16.5415 15.4436 16.3148 15.8065 15.9486C16.1694 15.5826 16.3945 15.2349 16.5824 14.7466C16.7243 14.3782 16.8932 13.8246 16.9395 12.8044C16.9891 11.7014 16.9999 11.3701 16.9999 8.57777C16.9999 5.78543 16.9891 5.4541 16.9395 4.35112C16.8934 3.33097 16.7243 2.7773 16.5824 2.40891C16.394 1.92063 16.1694 1.57186 15.8065 1.20565C15.4438 0.839445 15.0988 0.612745 14.6149 0.423101C14.2495 0.279888 13.7008 0.109426 12.6898 0.0627785C11.5966 0.0126429 11.2685 0.00261577 8.50008 0.00261577L8.1545 0.00251347ZM12.4668 2.77708C12.4668 2.14556 12.9745 1.63396 13.6002 1.63396V1.63356C14.2259 1.63356 14.7335 2.14576 14.7335 2.77708C14.7335 3.40839 14.2259 3.92059 13.6002 3.92059C12.9745 3.92059 12.4668 3.40839 12.4668 2.77708ZM8.50029 3.36602C5.64835 3.36614 3.33612 5.69926 3.33612 8.57692C3.33612 11.4546 5.64847 13.7868 8.5005 13.7868C11.3525 13.7868 13.664 11.4546 13.664 8.57692C13.664 5.69919 11.3523 3.36602 8.50029 3.36602ZM11.981 8.57635C11.981 6.6365 10.4224 5.06413 8.50003 5.06413C6.57746 5.06413 5.01909 6.6365 5.01909 8.57635C5.01909 10.516 6.57746 12.0886 8.50003 12.0886C10.4224 12.0886 11.981 10.516 11.981 8.57635Z" fill="white"/>
</svg>
