<svg width="37" height="58" viewBox="0 0 37 58" fill="none" xmlns="http://www.w3.org/2000/svg">
<path d="M3.84276 0C1.72155 0 0 1.66921 0 3.72591V7.20343C0 7.20839 0 7.21585 0 7.2233C0 12.1142 2.02385 16.5455 5.30557 19.7746L5.303 19.7722C7.63427 22.0847 10.6188 23.7688 13.9671 24.5413L14.0901 24.5662H14.2951V33.3345H14.0901C10.6111 34.1517 7.62659 35.8606 5.30813 38.198L5.303 38.203C2.03922 41.4271 0.0256165 45.8486 0.0256165 50.727C0.0256165 50.7419 0.0256165 50.7593 0.0256165 50.7742V50.7717V54.2741C0.0256165 56.3308 1.74717 58 3.86837 58C5.98957 58 7.71113 56.3308 7.71113 54.2741V50.7717C7.71113 50.727 7.71113 50.6749 7.71113 50.6227C7.71113 47.7786 8.88445 45.2003 10.7879 43.3174L10.7853 43.3199C12.6504 41.4594 15.2557 40.3044 18.1378 40.3044C21.0199 40.3044 23.6253 41.4594 25.4877 43.3174L25.4903 43.3199C27.3912 45.2003 28.5645 47.7786 28.5645 50.6227C28.5645 50.6749 28.5645 50.727 28.5645 50.7792V50.7717V54.2741C28.5645 56.3308 30.286 58 32.4072 58C34.5284 58 36.25 56.3308 36.25 54.2741V50.7717C36.2474 45.8709 34.2133 41.4296 30.9188 38.2005L30.9214 38.203C28.5901 35.8904 25.6056 34.2063 22.2572 33.4338L22.1343 33.409H21.9293V24.6158H22.1343C25.6107 23.8061 28.5952 22.1046 30.9163 19.7771L30.9214 19.7722C34.1852 16.548 36.1988 12.1266 36.1988 7.24814C36.1988 7.23323 36.1988 7.21585 36.1988 7.20094V7.20343V3.72591C36.1988 1.66921 34.4772 0 32.356 0C30.2348 0 28.5132 1.66921 28.5132 3.72591V7.20343C28.5132 7.24814 28.5132 7.3003 28.5132 7.35246C28.5132 10.1966 27.3399 12.7749 25.4365 14.6577L25.439 14.6552C23.574 16.5157 20.9686 17.6707 18.0866 17.6707C15.2045 17.6707 12.5991 16.5157 10.7367 14.6577L10.7341 14.6552C8.83321 12.7724 7.65989 10.1891 7.65989 7.34253C7.65989 7.29285 7.65989 7.24565 7.65989 7.19597V7.20343V3.72591C7.65989 1.67666 5.95371 0.0149036 3.84532 0H3.84276ZM11.1696 50.5979C11.1696 46.8794 14.2771 43.8664 18.1122 43.8664C21.9473 43.8664 25.0548 46.8794 25.0548 50.5979C25.0548 54.3163 21.9473 57.3293 18.1122 57.3293C14.2771 57.3293 11.1696 54.3163 11.1696 50.5979Z" fill="white"/>
</svg>
