<svg width="24" height="20" viewBox="0 0 24 20" fill="none" xmlns="http://www.w3.org/2000/svg">
<path d="M16.4448 6.66293C14.3261 6.77362 12.4838 7.41586 10.9881 8.86688C9.47687 10.3329 8.78702 12.1292 8.97558 14.3561C8.14748 14.2536 7.39323 14.1407 6.63469 14.0768C6.37272 14.0548 6.06183 14.0861 5.83993 14.2113C5.10335 14.6269 4.39723 15.0962 3.56029 15.6193C3.71385 14.9248 3.81325 14.3166 3.98922 13.7315C4.11863 13.3016 4.05869 13.0622 3.66258 12.7822C1.1193 10.9867 0.047255 8.29944 0.849542 5.53287C1.5918 2.97349 3.4146 1.42133 5.89138 0.612215C9.27194 -0.492035 13.0711 0.634353 15.1267 3.31833C15.8692 4.28783 16.3244 5.37598 16.4448 6.66293ZM6.69402 5.80088C6.71353 5.29487 6.27507 4.83899 5.75427 4.82377C5.22104 4.8081 4.78249 5.21559 4.76692 5.74103C4.75117 6.27355 5.15848 6.70029 5.69555 6.71394C6.22799 6.72742 6.67433 6.3194 6.69402 5.80088ZM11.7814 4.82342C11.2586 4.83304 10.8169 5.27824 10.8262 5.78627C10.8357 6.31284 11.269 6.72479 11.8066 6.71832C12.3455 6.71184 12.7542 6.29552 12.7491 5.75783C12.7446 5.23003 12.3133 4.8137 11.7814 4.82342Z" fill="#03ABEF"/>
<path d="M21.2045 19.8712C20.5336 19.5725 19.9182 19.1243 19.263 19.0559C18.6104 18.9877 17.9243 19.3642 17.2414 19.434C15.1615 19.6468 13.2981 19.0672 11.7616 17.6462C8.83933 14.9434 9.25688 10.799 12.6378 8.58406C15.6426 6.61548 20.0494 7.27173 22.1679 10.0032C24.0167 12.3867 23.7995 15.5507 21.5425 17.5531C20.8894 18.1326 20.6544 18.6094 21.0734 19.3734C21.1508 19.5145 21.1596 19.693 21.2045 19.8712ZM13.568 12.4775C13.9951 12.478 14.3468 12.1437 14.3629 11.7219C14.38 11.2753 14.0208 10.9007 13.5736 10.8989C13.1309 10.8969 12.7599 11.2767 12.7753 11.7166C12.7899 12.137 13.144 12.477 13.568 12.4775ZM18.4908 10.9006C18.0764 10.8977 17.7243 11.237 17.7075 11.6557C17.6895 12.1034 18.0375 12.4711 18.4806 12.4722C18.9092 12.4736 19.2478 12.1495 19.2634 11.723C19.28 11.2742 18.9318 10.9037 18.4908 10.9006Z" fill="#03ABEF"/>
</svg>
