<svg width="42" height="42" viewBox="0 0 42 42" fill="none" xmlns="http://www.w3.org/2000/svg">
<path fill-rule="evenodd" clip-rule="evenodd" d="M21 42C32.598 42 42 32.598 42 21C42 9.40202 32.598 0 21 0C9.40202 0 0 9.40202 0 21C0 32.598 9.40202 42 21 42ZM20.125 10.5V18.375H11.375V14C11.375 12.067 12.942 10.5 14.875 10.5H20.125ZM21.875 10.5V18.375H30.625V14C30.625 12.067 29.058 10.5 27.125 10.5H21.875ZM11.375 26.25V20.125H30.625V26.25C30.625 28.183 29.058 29.75 27.125 29.75V31.5C27.125 31.9832 26.7332 32.375 26.25 32.375H25.375C24.8918 32.375 24.5 31.9832 24.5 31.5V29.75H17.5V31.5C17.5 31.9832 17.1082 32.375 16.625 32.375H15.75C15.2668 32.375 14.875 31.9832 14.875 31.5V29.75C12.942 29.75 11.375 28.183 11.375 26.25ZM15.3125 27.125C16.5206 27.125 17.5 26.1456 17.5 24.9375C17.5 23.7294 16.5206 22.75 15.3125 22.75C14.1044 22.75 13.125 23.7294 13.125 24.9375C13.125 26.1456 14.1044 27.125 15.3125 27.125ZM28.875 24.9375C28.875 26.1456 27.8956 27.125 26.6875 27.125C25.4794 27.125 24.5 26.1456 24.5 24.9375C24.5 23.7294 25.4794 22.75 26.6875 22.75C27.8956 22.75 28.875 23.7294 28.875 24.9375Z" fill="white"/>
</svg>
