<svg width="42" height="42" viewBox="0 0 42 42" fill="none" xmlns="http://www.w3.org/2000/svg">
<path fill-rule="evenodd" clip-rule="evenodd" d="M21 42C32.598 42 42 32.598 42 21C42 9.40202 32.598 0 21 0C9.40202 0 0 9.40202 0 21C0 32.598 9.40202 42 21 42Z" fill="white"/>
<path fill-rule="evenodd" clip-rule="evenodd" d="M21.2443 8.75C14.6138 8.75 9.2387 14.0386 9.2387 20.5625C9.2387 22.6585 9.79353 24.627 10.7666 26.3336C10.7666 26.3336 11.3113 26.964 9.2827 28.5551C7.97266 29.5827 9.33308 30.6394 10.6296 30.7904C11.5215 30.8943 13.5659 30.79 14.475 30.3196C16.4022 31.6165 18.7332 32.375 21.2443 32.375C27.8749 32.375 33.25 27.0864 33.25 20.5625C33.25 14.0386 27.8749 8.75 21.2443 8.75ZM21.2443 30.7904C18.8342 30.7904 16.617 29.9777 14.8605 28.6155C14.743 28.6155 12.4476 29.2778 11.3617 28.9177C13.0956 27.6327 12.4203 25.9064 12.4203 25.9064C11.4698 24.3696 10.9224 22.565 10.9224 20.6345C10.9224 15.0256 15.5437 10.4787 21.2443 10.4787C26.945 10.4787 31.5663 15.0256 31.5663 20.6345C31.5663 26.2435 26.945 30.7904 21.2443 30.7904ZM14.0397 23.1152C14.0397 23.4295 14.2767 23.4436 14.2767 23.4436C14.2767 23.4436 14.7461 23.4436 15.0738 23.4436C15.4022 23.4436 15.3843 23.0616 15.3843 23.0616C15.3843 23.0616 15.3843 20.2896 15.3843 19.5147C15.3843 19.19 15.0918 19.1876 15.0918 19.1876C15.0918 19.1876 14.6246 19.1876 14.3129 19.1876C14.0406 19.1876 14.0397 19.4612 14.0397 19.4612C14.0397 19.4612 14.0397 22.1617 14.0397 23.1152ZM14.712 16.9737C14.2786 16.9737 13.9955 17.2609 14.0043 17.6438C13.9955 18.0094 14.2786 18.3053 14.7031 18.3053C15.1454 18.3053 15.4285 18.0094 15.4285 17.6438C15.4197 17.2609 15.1454 16.9737 14.712 16.9737ZM23.3541 20.937C23.3541 19.6664 22.7261 19.0919 21.8946 19.0919C21.5761 19.0919 21.3108 19.1616 21.0719 19.3008C20.8685 19.4227 20.6739 19.5967 20.5147 19.8143H20.4969C20.3112 19.3704 19.8689 19.0919 19.3116 19.0919C18.5686 19.0919 18.1882 19.4922 18.0025 19.7621H17.976L17.9415 19.4428C17.9415 19.4428 17.8936 19.1876 17.6281 19.1876C17.4561 19.1876 17.2382 19.1876 17.0665 19.1876C16.7844 19.1876 16.7932 19.4442 16.7932 19.4442C16.7932 19.4442 16.8172 20.1305 16.8172 20.5454V22.9904C16.8172 22.9904 16.817 23.4436 17.2476 23.4436C17.4374 23.4436 17.6558 23.4436 17.8273 23.4436C18.1731 23.4436 18.1263 22.9904 18.1263 22.9904V20.9631C18.1263 20.8587 18.1351 20.7369 18.1794 20.6324C18.259 20.4148 18.4624 20.1537 18.8074 20.1537C19.232 20.1537 19.4266 20.5192 19.4266 21.0589C19.4266 21.0589 19.4266 22.2986 19.4266 22.9904C19.4266 23.4181 19.7657 23.4436 19.7657 23.4436C19.7657 23.4436 20.0899 23.4436 20.3635 23.4436C20.7399 23.4436 20.7358 23.026 20.7358 23.026V20.9544C20.7358 20.85 20.7535 20.7107 20.7889 20.615C20.8773 20.3626 21.0984 20.1537 21.4081 20.1537C21.8415 20.1537 22.045 20.5106 22.045 21.1285V22.9547C22.045 22.9547 21.9759 23.4436 22.32 23.4436C22.5318 23.4436 23.0446 23.4436 23.0446 23.4436C23.0446 23.4436 23.3541 23.4133 23.3541 22.9904C23.3541 22.2682 23.3541 20.937 23.3541 20.937ZM26.8391 19.0919C25.4503 19.0919 24.5304 19.971 24.5304 21.3461C24.5304 22.7212 25.5034 23.5393 26.7683 23.5393C27.9271 23.5393 29.0505 22.8256 29.0505 21.2677C29.0505 19.9884 28.166 19.0919 26.8391 19.0919ZM26.8038 22.5907C26.2287 22.5907 25.9192 22.0423 25.9192 21.3112C25.9192 20.6846 26.158 20.0319 26.8038 20.0319C27.4141 20.0319 27.6618 20.676 27.6618 21.3112C27.6618 22.0771 27.3257 22.5907 26.8038 22.5907Z" fill="#02AAEF"/>
</svg>
