<svg width="42" height="42" viewBox="0 0 42 42" fill="none" xmlns="http://www.w3.org/2000/svg">
<path fill-rule="evenodd" clip-rule="evenodd" d="M21 42C32.598 42 42 32.598 42 21C42 9.40202 32.598 0 21 0C9.40202 0 0 9.40202 0 21C0 32.598 9.40202 42 21 42ZM26.2268 20.3774C25.1897 20.3774 24.2564 20.0974 23.4268 19.5374C22.5972 18.9774 21.7157 18.1166 20.7823 16.9551C19.932 18.1374 19.1231 19.0033 18.3557 19.5529C17.5883 20.1025 16.6861 20.3774 15.649 20.3774C14.4668 20.3774 13.3986 19.9625 12.4446 19.1329C11.4905 18.3033 11.0135 17.204 11.0135 15.8351C11.0135 14.5699 11.4594 13.4914 12.3512 12.5996C13.2638 11.687 14.3942 11.2307 15.7423 11.2307C16.6757 11.2307 17.5157 11.5003 18.2623 12.0396C19.009 12.5788 19.849 13.4499 20.7823 14.6529C21.612 13.4914 22.4312 12.6307 23.2401 12.0707C24.049 11.5107 25.0342 11.2307 26.1957 11.2307C27.5438 11.2307 28.6172 11.6714 29.4157 12.5529C30.2142 13.4344 30.6135 14.5699 30.6135 15.9596C30.6135 17.1003 30.2194 18.127 29.4312 19.0396C28.6638 19.9314 27.5957 20.3774 26.2268 20.3774ZM25.9131 12.6617C25.0835 12.6617 24.3472 12.9054 23.7042 13.3928C23.0613 13.8802 22.3665 14.6632 21.6198 15.7417C22.4909 16.8824 23.2531 17.7017 23.9065 18.1995C24.5598 18.6972 25.2909 18.9461 26.0998 18.9461C26.9916 18.9461 27.7124 18.6454 28.262 18.0439C28.8116 17.4424 29.0865 16.7372 29.0865 15.9283C29.0865 14.9743 28.8013 14.1913 28.2309 13.5795C27.6605 12.9676 26.8879 12.6617 25.9131 12.6617ZM15.7711 18.9461C16.6008 18.9461 17.3215 18.7076 17.9334 18.2306C18.5452 17.7535 19.2141 16.9758 19.94 15.8972C19.38 15.1298 18.9445 14.5802 18.6334 14.2483C17.7415 13.1906 16.8082 12.6617 15.8334 12.6617C14.8793 12.6617 14.0911 12.9676 13.4689 13.5795C12.8467 14.1913 12.5356 14.9432 12.5356 15.835C12.5356 16.7683 12.8778 17.5254 13.5623 18.1061C14.2467 18.6661 14.983 18.9461 15.7711 18.9461ZM15.61 28.0629C15.61 27.8347 15.343 27.5936 14.8089 27.3396C14.6533 27.2722 14.5172 27.2086 14.4006 27.149C14.2839 27.0894 14.1543 27.0064 14.0117 26.9001C13.8691 26.7938 13.7524 26.6836 13.6617 26.5696C13.5709 26.4555 13.4931 26.3129 13.4283 26.1418C13.3635 25.9707 13.3337 25.7866 13.3389 25.5896C13.3389 25.154 13.4996 24.7833 13.8211 24.4773C14.1426 24.1714 14.5678 24.0184 15.0967 24.0184C15.7915 24.0184 16.3256 24.2181 16.6989 24.6173L16.03 25.5507C15.8796 25.4107 15.7487 25.3147 15.6372 25.2629C15.5257 25.211 15.3819 25.1851 15.2056 25.1851C15.0344 25.1851 14.9009 25.2214 14.805 25.294C14.7091 25.3666 14.6611 25.4651 14.6611 25.5896C14.6611 25.7296 14.7169 25.854 14.8283 25.9629C14.9398 26.0718 15.0798 26.1612 15.2483 26.2312C15.4169 26.3012 15.5996 26.3881 15.7967 26.4918C15.9937 26.5955 16.1765 26.7057 16.345 26.8223C16.5135 26.939 16.6535 27.1023 16.765 27.3123C16.8765 27.5223 16.9322 27.7673 16.9322 28.0473C16.9322 28.514 16.7533 28.8977 16.3956 29.1984C16.0481 29.4992 15.6048 29.6496 15.0656 29.6496C14.6715 29.6496 14.2982 29.5692 13.9456 29.4084C13.5878 29.2477 13.3467 29.0299 13.2222 28.7551L13.93 27.9073C14.07 28.0888 14.2463 28.2301 14.4589 28.3312C14.6715 28.4323 14.8841 28.4829 15.0967 28.4829C15.2574 28.4829 15.3831 28.4453 15.4739 28.3701C15.5646 28.2949 15.61 28.1925 15.61 28.0629ZM19.0118 29.5556H17.7674V24.1111H19.0196L20.6996 26.4056L22.2862 24.1111H23.4607V29.5556H22.2162V26.0867L20.6996 28.21H20.5207L19.0118 26.11V29.5556ZM26.6812 28.0629C26.6812 27.8347 26.4141 27.5936 25.8801 27.3396C25.7245 27.2722 25.5884 27.2086 25.4717 27.149C25.3551 27.0894 25.2254 27.0064 25.0828 26.9001C24.9403 26.7938 24.8236 26.6836 24.7328 26.5696C24.6421 26.4555 24.5643 26.3129 24.4995 26.1418C24.4347 25.9707 24.4049 25.7866 24.4101 25.5896C24.4101 25.154 24.5708 24.7833 24.8923 24.4773C25.2138 24.1714 25.639 24.0184 26.1678 24.0184C26.8627 24.0184 27.3967 24.2181 27.7701 24.6173L27.1012 25.5507C26.9508 25.4107 26.8199 25.3147 26.7084 25.2629C26.5969 25.211 26.453 25.1851 26.2767 25.1851C26.1056 25.1851 25.9721 25.2214 25.8762 25.294C25.7803 25.3666 25.7323 25.4651 25.7323 25.5896C25.7323 25.7296 25.788 25.854 25.8995 25.9629C26.011 26.0718 26.151 26.1612 26.3195 26.2312C26.488 26.3012 26.6708 26.3881 26.8678 26.4918C27.0649 26.5955 27.2477 26.7057 27.4162 26.8223C27.5847 26.939 27.7247 27.1023 27.8362 27.3123C27.9477 27.5223 28.0034 27.7673 28.0034 28.0473C28.0034 28.514 27.8245 28.8977 27.4667 29.1984C27.1193 29.4992 26.676 29.6496 26.1367 29.6496C25.7427 29.6496 25.3693 29.5692 25.0167 29.4084C24.659 29.2477 24.4178 29.0299 24.2934 28.7551L25.0012 27.9073C25.1412 28.0888 25.3175 28.2301 25.5301 28.3312C25.7427 28.4323 25.9553 28.4829 26.1678 28.4829C26.3286 28.4829 26.4543 28.4453 26.5451 28.3701C26.6358 28.2949 26.6812 28.1925 26.6812 28.0629Z" fill="white"/>
</svg>
