<svg width="21" height="13" viewBox="0 0 21 13" fill="none" xmlns="http://www.w3.org/2000/svg">
<path d="M20.8886 10.9522C20.8632 10.8969 20.8395 10.8509 20.8175 10.8141C20.4531 10.151 19.7569 9.33706 18.7291 8.37208L18.7074 8.34998L18.6965 8.33914L18.6855 8.32804H18.6745C18.2081 7.87869 17.9127 7.57656 17.789 7.42188C17.5627 7.12721 17.5119 6.82895 17.6356 6.52675C17.723 6.29842 18.0513 5.81621 18.6197 5.07948C18.9187 4.68904 19.1555 4.37611 19.3303 4.14035C20.5914 2.44606 21.1382 1.36339 20.9705 0.891912L20.9053 0.781733C20.8616 0.715402 20.7486 0.65472 20.5666 0.599379C20.3841 0.544154 20.1509 0.535021 19.8666 0.571825L16.7177 0.593806C16.6667 0.57554 16.5939 0.577243 16.499 0.599379C16.4042 0.621515 16.3568 0.632622 16.3568 0.632622L16.302 0.660293L16.2585 0.693536C16.222 0.715518 16.1819 0.754179 16.1382 0.809443C16.0946 0.864513 16.0582 0.929142 16.0291 1.00279C15.6863 1.89409 15.2965 2.72277 14.859 3.4888C14.5893 3.94557 14.3416 4.34143 14.1154 4.67662C13.8895 5.01168 13.7 5.25855 13.547 5.41679C13.3938 5.57519 13.2556 5.70209 13.1314 5.79795C13.0075 5.89385 12.9128 5.93436 12.8473 5.91954C12.7816 5.90472 12.7198 5.89001 12.6612 5.87531C12.5592 5.80898 12.4772 5.71877 12.4154 5.6046C12.3532 5.49044 12.3114 5.34674 12.2896 5.17364C12.2678 5.00042 12.2549 4.85142 12.2513 4.72615C12.2478 4.60103 12.2494 4.42406 12.2568 4.19573C12.2644 3.96728 12.2678 3.81272 12.2678 3.73168C12.2678 3.45172 12.2732 3.14789 12.284 2.8201C12.2951 2.49231 12.304 2.2326 12.3115 2.04126C12.3189 1.84974 12.3223 1.6471 12.3223 1.43348C12.3223 1.21986 12.3095 1.05232 12.284 0.930728C12.2589 0.809288 12.2204 0.691408 12.1695 0.577127C12.1184 0.462962 12.0436 0.374648 11.9454 0.311954C11.847 0.249338 11.7247 0.199647 11.5791 0.162727C11.1928 0.0743751 10.7008 0.0265807 10.1029 0.0191503C8.7472 0.00444427 7.87608 0.0929124 7.48975 0.284439C7.33668 0.36536 7.19817 0.475926 7.07432 0.615788C6.94308 0.777902 6.92477 0.86637 7.01952 0.880921C7.45693 0.947137 7.76659 1.10554 7.94885 1.35596L8.01452 1.48867C8.06561 1.58441 8.11662 1.75392 8.16767 1.99695C8.21864 2.23999 8.25154 2.50884 8.26601 2.80334C8.3024 3.34116 8.3024 3.80153 8.26601 4.18451C8.22952 4.56764 8.19505 4.8659 8.16216 5.07952C8.12926 5.29314 8.08009 5.46625 8.01452 5.5988C7.94885 5.73138 7.90515 5.81242 7.88324 5.84183C7.86138 5.87125 7.84315 5.88978 7.82867 5.89706C7.73393 5.93375 7.63539 5.95244 7.53341 5.95244C7.43127 5.95244 7.30743 5.90081 7.16167 5.79764C7.01595 5.69446 6.86472 5.55274 6.70798 5.37225C6.55123 5.19171 6.37446 4.93943 6.17758 4.61535C5.98085 4.29128 5.77673 3.90827 5.56534 3.46631L5.39044 3.1458C5.2811 2.93961 5.13175 2.63937 4.94222 2.24537C4.75258 1.85121 4.58496 1.46994 4.43924 1.10163C4.38099 0.946944 4.29349 0.82918 4.17688 0.748142L4.12215 0.714898C4.08577 0.685486 4.02737 0.654256 3.94725 0.620974C3.86702 0.58773 3.78331 0.563891 3.69576 0.549224L0.699899 0.571205C0.39376 0.571205 0.186042 0.641291 0.0766687 0.781269L0.0328963 0.847485C0.0110293 0.884366 0 0.943267 0 1.02434C0 1.10538 0.0218671 1.20484 0.0656395 1.3226C0.502981 2.36131 0.978579 3.36306 1.49244 4.32801C2.00629 5.29295 2.45282 6.07024 2.83176 6.65918C3.21078 7.24854 3.59711 7.80477 3.99076 8.32761C4.3844 8.85064 4.64497 9.18582 4.77246 9.33307C4.9001 9.4806 5.00036 9.59089 5.07323 9.66454L5.34663 9.92967C5.52156 10.1065 5.77846 10.3183 6.11741 10.565C6.45645 10.8118 6.83179 11.0549 7.24362 11.2945C7.65554 11.5337 8.13474 11.7289 8.68149 11.8798C9.22816 12.031 9.76025 12.0916 10.2778 12.0624H11.5352C11.7902 12.0401 11.9835 11.9591 12.1148 11.8192L12.1583 11.7638C12.1875 11.7199 12.2149 11.6516 12.2402 11.5596C12.2658 11.4676 12.2785 11.3661 12.2785 11.2558C12.271 10.9391 12.2949 10.6537 12.3494 10.3996C12.4039 10.1456 12.466 9.95405 12.5355 9.82507C12.6049 9.6962 12.6833 9.58745 12.7705 9.49929C12.8579 9.41094 12.9201 9.35742 12.9567 9.339C12.993 9.32046 13.022 9.30788 13.0438 9.30033C13.2188 9.24143 13.4246 9.29848 13.6618 9.47174C13.8987 9.64484 14.1209 9.85858 14.3288 10.1126C14.5366 10.3669 14.7862 10.6521 15.0777 10.9688C15.3694 11.2856 15.6244 11.5211 15.843 11.676L16.0616 11.8086C16.2076 11.8971 16.3972 11.9781 16.6304 12.0517C16.8633 12.1254 17.0674 12.1438 17.2426 12.107L20.0415 12.0629C20.3184 12.0629 20.5338 12.0165 20.6866 11.9246C20.8397 11.8326 20.9306 11.7311 20.96 11.6208C20.9892 11.5103 20.9908 11.385 20.9655 11.2449C20.9396 11.1052 20.9141 11.0075 20.8886 10.9522Z" fill="white"/>
</svg>
