<svg width="42" height="42" viewBox="0 0 42 42" fill="none" xmlns="http://www.w3.org/2000/svg">
<path fill-rule="evenodd" clip-rule="evenodd" d="M21 42C32.598 42 42 32.598 42 21C42 9.40202 32.598 0 21 0C9.40202 0 0 9.40202 0 21C0 32.598 9.40202 42 21 42Z" fill="white"/>
<path d="M25.4448 17.6629C23.3261 17.7736 21.4838 18.4159 19.9881 19.8669C18.4769 21.3329 17.787 23.1292 17.9756 25.3561C17.1475 25.2536 16.3932 25.1407 15.6347 25.0768C15.3727 25.0548 15.0618 25.0861 14.8399 25.2113C14.1034 25.6269 13.3972 26.0962 12.5603 26.6193C12.7139 25.9248 12.8133 25.3166 12.9892 24.7315C13.1186 24.3016 13.0587 24.0622 12.6626 23.7822C10.1193 21.9867 9.04725 19.2994 9.84954 16.5329C10.5918 13.9735 12.4146 12.4213 14.8914 11.6122C18.2719 10.508 22.0711 11.6344 24.1267 14.3183C24.8692 15.2878 25.3244 16.376 25.4448 17.6629ZM15.694 16.8009C15.7135 16.2949 15.2751 15.839 14.7543 15.8238C14.221 15.8081 13.7825 16.2156 13.7669 16.741C13.7512 17.2736 14.1585 17.7003 14.6956 17.7139C15.228 17.7274 15.6743 17.3194 15.694 16.8009ZM20.7814 15.8234C20.2586 15.833 19.8169 16.2782 19.8262 16.7863C19.8357 17.3128 20.269 17.7248 20.8066 17.7183C21.3455 17.7118 21.7542 17.2955 21.7491 16.7578C21.7446 16.23 21.3133 15.8137 20.7814 15.8234Z" fill="#03ABEF"/>
<path d="M30.2045 30.8712C29.5336 30.5725 28.9182 30.1243 28.263 30.0559C27.6104 29.9877 26.9243 30.3642 26.2414 30.434C24.1615 30.6468 22.2981 30.0672 20.7616 28.6462C17.8393 25.9434 18.2569 21.799 21.6378 19.5841C24.6426 17.6155 29.0494 18.2717 31.1679 21.0032C33.0167 23.3867 32.7995 26.5507 30.5425 28.5531C29.8894 29.1326 29.6544 29.6094 30.0734 30.3734C30.1508 30.5145 30.1596 30.693 30.2045 30.8712ZM22.568 23.4775C22.9951 23.478 23.3468 23.1437 23.3629 22.7219C23.38 22.2753 23.0208 21.9007 22.5736 21.8989C22.1309 21.8969 21.7599 22.2767 21.7753 22.7166C21.7899 23.137 22.144 23.477 22.568 23.4775ZM27.4908 21.9006C27.0764 21.8977 26.7243 22.237 26.7075 22.6557C26.6895 23.1034 27.0375 23.4711 27.4806 23.4722C27.9092 23.4736 28.2478 23.1495 28.2634 22.723C28.28 22.2742 27.9318 21.9037 27.4908 21.9006Z" fill="#03ABEF"/>
</svg>
