<svg width="42" height="42" viewBox="0 0 42 42" fill="none" xmlns="http://www.w3.org/2000/svg">
<path fill-rule="evenodd" clip-rule="evenodd" d="M21 42C32.598 42 42 32.598 42 21C42 9.40202 32.598 0 21 0C9.40202 0 0 9.40202 0 21C0 32.598 9.40202 42 21 42Z" fill="white"/>
<path fill-rule="evenodd" clip-rule="evenodd" d="M21.7369 25.2329V15.4341C26.5728 15.4341 28.1627 17.519 27.0365 22.2446C33.9923 15.0171 26.1753 10.5 19.2858 10.5V21.2022C18.6896 20.9242 18.0934 20.7157 17.4309 20.7157C15.0461 20.7157 13.125 22.731 13.125 25.2329C13.125 27.7347 15.0461 29.75 17.4309 29.75C19.8158 29.75 21.7369 27.7347 21.7369 25.2329Z" fill="#07A4EF"/>
</svg>
