<svg width="18" height="16" viewBox="0 0 18 16" fill="none" xmlns="http://www.w3.org/2000/svg">
<path fill-rule="evenodd" clip-rule="evenodd" d="M18 1.80122C17.3388 2.10667 16.6263 2.31188 15.8807 2.40387C16.6445 1.92977 17.2293 1.18205 17.5029 0.289274C16.7904 0.727996 16.0004 1.04524 15.159 1.21625C14.4841 0.474434 13.5242 0.00976562 12.4629 0.00976562C10.4233 0.00976562 8.768 1.72102 8.768 3.8309C8.768 4.13045 8.8022 4.42293 8.86377 4.70126C5.79593 4.54205 3.07467 3.02185 1.25176 0.709127C0.932548 1.27522 0.752423 1.92977 0.752423 2.63031C0.752423 3.95473 1.40224 5.12465 2.39521 5.80986C1.78985 5.79099 1.21984 5.61763 0.721642 5.33222V5.3794C0.721642 7.23099 1.99278 8.77478 3.68459 9.12741C3.37564 9.2135 3.04845 9.26067 2.71214 9.26067C2.47387 9.26067 2.24245 9.23709 2.01672 9.19227C2.48755 10.7113 3.8499 11.8152 5.46646 11.847C4.20103 12.8707 2.60954 13.4816 0.878966 13.4816C0.583697 13.4816 0.289569 13.4639 0 13.4285C1.63253 14.5124 3.57401 15.1445 5.66027 15.1445C12.4537 15.1445 16.168 9.32318 16.168 4.27434C16.168 4.10805 16.1657 3.94293 16.1588 3.78018C16.8805 3.24121 17.5052 2.5678 18 1.80122Z" fill="white"/>
</svg>
