<svg width="25" height="37" viewBox="0 0 25 37" fill="none" xmlns="http://www.w3.org/2000/svg">
<path fill-rule="evenodd" clip-rule="evenodd" d="M18.1464 0C18.9311 0 19.5653 0.642347 19.5653 1.43743V2.85144C19.5653 4.75279 18.8432 6.54422 17.5329 7.89086C16.6097 8.8461 15.4419 9.50758 14.159 9.81076L14.0298 9.84074V13.4941L14.159 13.5221C15.4419 13.8204 16.6077 14.487 17.5371 15.444C18.8434 16.7886 19.5656 18.5778 19.5656 20.4788V21.8954C19.5656 22.6871 18.9314 23.3351 18.1467 23.3351C17.3578 23.3351 16.7228 22.6871 16.7228 21.8954V20.4788C16.7228 19.3398 16.2916 18.2677 15.5069 17.4595C14.7316 16.663 13.7024 16.2199 12.6087 16.2148C11.5172 16.2199 10.4852 16.663 9.70757 17.4595C8.92575 18.2675 8.49455 19.3398 8.49455 20.4788V21.8954C8.49455 22.6871 7.85722 23.3351 7.07511 23.3351C6.29074 23.3351 5.64917 22.6871 5.64917 21.8954V20.4788C5.64917 18.5824 6.37161 16.7904 7.68219 15.444C8.6068 14.4868 9.77459 13.8204 11.0532 13.5221L11.187 13.4941V9.84074L11.0529 9.81076C9.76978 9.50758 8.60426 8.84582 7.68134 7.89086C6.37076 6.54194 5.64832 4.7505 5.64832 2.85144V1.43743C5.64889 0.642347 6.29075 0 7.0754 0C7.85778 0 8.49483 0.642347 8.49483 1.43743V2.85144C8.49483 3.99054 8.92604 5.0674 9.70786 5.87561C10.4854 6.67269 11.5175 7.11063 12.6112 7.11519C13.7026 7.11063 14.729 6.67269 15.5072 5.87618C16.2916 5.06768 16.723 3.99111 16.723 2.85173V1.43743C16.7225 0.642347 17.3573 0 18.1464 0ZM12.6084 17.5991C11.0877 17.5991 9.85772 18.8456 9.85772 20.3812C9.85772 21.9191 11.0877 23.163 12.6084 23.163C14.1268 23.163 15.359 21.9191 15.359 20.3815C15.359 18.8461 14.1262 17.5991 12.6084 17.5991ZM24.9535 35.3707C25.083 35.697 24.9332 36.0722 24.6122 36.21C24.5359 36.2443 24.4511 36.2586 24.3677 36.2586C24.1092 36.2586 23.883 36.1044 23.7767 35.8646L23.2785 34.6347H20.4724L19.9739 35.8652C19.8421 36.1821 19.4565 36.3402 19.1426 36.2098C18.8203 36.0722 18.6653 35.6947 18.799 35.3704L21.2749 29.321C21.4253 28.9621 21.686 28.8804 21.8752 28.8804C22.1426 28.8804 22.3621 29.034 22.4752 29.323L24.9535 35.3707ZM22.7593 33.3557L21.8754 31.2003L20.9961 33.3557H22.7593ZM12.9364 32.638C12.9364 34.4948 11.9298 36.3636 9.68241 36.3636H9.66827C8.60511 36.3636 7.728 35.9859 7.1376 35.2685C6.5998 34.6113 6.31336 33.6983 6.31591 32.6123C6.3227 30.2799 7.6426 28.768 9.68071 28.768C11.7202 28.7774 12.9364 30.222 12.9364 32.638ZM11.595 32.638C11.595 30.9722 10.9554 30.1286 9.68637 30.1217C7.92395 30.1217 7.6607 31.6899 7.65137 32.6169C7.64911 33.3792 7.82668 33.9964 8.16401 34.4018C8.50049 34.8026 9.00662 35.0121 9.6711 35.0144H9.68241C11.0897 35.0144 11.595 33.7868 11.595 32.638ZM18.3653 28.8896H14.0646C13.7066 28.8896 13.4185 29.1825 13.4185 29.5462C13.4185 29.9053 13.7069 30.2011 14.0646 30.2011H15.5575V35.59C15.5575 35.9508 15.8482 36.2472 16.2107 36.2472C16.3883 36.2472 16.55 36.1769 16.6693 36.0536C16.7988 35.9297 16.8636 35.7624 16.8636 35.59L16.8608 30.2011H18.365C18.7233 30.2011 19.0137 29.9053 19.0137 29.5465C19.0137 29.1828 18.723 28.8896 18.3653 28.8896ZM5.365 28.9732C5.05312 28.7939 4.65669 28.901 4.47658 29.2159L2.84507 32.0696L1.21413 29.2156C1.03402 28.8987 0.634481 28.7939 0.325429 28.9729C0.013548 29.1551 -0.0924853 29.5605 0.0879134 29.8722L2.19445 33.5536V35.6111C2.19445 35.9722 2.4871 36.2683 2.84253 36.2683C3.20248 36.2683 3.4957 35.9719 3.4957 35.6108V33.5536L5.59771 29.8725C5.78291 29.5608 5.67688 29.1554 5.365 28.9732Z" fill="white"/>
</svg>
